<svg width="134" height="68" viewBox="0 0 134 68" fill="none" xmlns="http://www.w3.org/2000/svg">
<path d="M4.02 67.2913C1.81086 67.2913 -0.012342 65.4986 0.118293 63.2933C0.980727 48.7344 6.5351 34.8094 15.9989 23.6526C25.4579 12.5014 38.2558 4.78346 52.4219 1.61212C54.5798 1.12904 56.6446 2.66298 56.9944 4.84639C57.3436 7.02561 55.8632 9.09869 53.7134 9.59804C41.4295 12.4513 30.3409 19.1965 22.119 28.8892C13.8947 38.5849 9.02543 50.6561 8.1744 63.2942C8.02598 65.4983 6.22914 67.2913 4.02 67.2913Z" fill="#02B9B0"/>
<path d="M60.2625 4.39615C60.0274 2.201 61.6115 0.180756 63.8167 0.0753632C77.2566 -0.56691 90.613 2.87038 102.124 9.98713C113.641 17.1078 122.715 27.5445 128.196 39.8947C129.09 41.9098 128.016 44.2249 125.954 45.0045C123.883 45.7872 121.562 44.7403 120.647 42.7246C115.804 32.0563 107.901 23.0416 97.9088 16.8636C87.9184 10.6867 76.3479 7.65958 64.6853 8.11998C62.4764 8.20718 60.498 6.59415 60.2625 4.39615Z" fill="#B774FC"/>
<path d="M127.375 49.3196C129.496 48.6883 131.759 49.8908 132.258 52.0466C132.972 55.1309 133.469 58.262 133.744 61.4166C133.936 63.617 132.164 65.4593 129.956 65.5214C127.748 65.5834 125.901 63.8412 125.691 61.6416C125.456 59.1813 125.068 56.7382 124.53 54.3266C124.049 52.1742 125.261 49.9488 127.375 49.3196Z" fill="#B3BEBE"/>
</svg>
