<svg width="417" height="10" viewBox="0 0 417 10" fill="none" xmlns="http://www.w3.org/2000/svg">
<path d="M0 4C0 1.79086 1.79086 0 4 0H132C134.209 0 136 1.79086 136 4V6C136 8.20914 134.209 10 132 10H4C1.79086 10 0 8.20914 0 6V4Z" fill="#02B9B0"/>
<path d="M140 4C140 1.79086 141.791 0 144 0H307C309.209 0 311 1.79086 311 4V6C311 8.20914 309.209 10 307 10H144C141.791 10 140 8.20914 140 6V4Z" fill="#FAC905"/>
<path d="M315 4C315 1.79086 316.791 0 319 0H363C365.209 0 367 1.79086 367 4V6C367 8.20914 365.209 10 363 10H319C316.791 10 315 8.20914 315 6V4Z" fill="#B774FC"/>
<path d="M371 4C371 1.79086 372.791 0 375 0H413C415.209 0 417 1.79086 417 4V6C417 8.20914 415.209 10 413 10H375C372.791 10 371 8.20914 371 6V4Z" fill="#B3BEBE"/>
</svg>
